<svg xmlns="http://www.w3.org/2000/svg" width="729.461" height="667.628" viewBox="0 0 729.461 667.628">
  <g id="Group_2642" data-name="Group 2642" transform="translate(-509.801 -3885.702)">
    <path id="Icon_awesome-graduation-cap" data-name="Icon awesome-graduation-cap" d="M54.878,7.866,30.281.309a7.044,7.044,0,0,0-4.126,0L1.557,7.866a2.076,2.076,0,0,0,0,4.02L5.845,13.2a6.949,6.949,0,0,0-1.577,4.136,2.721,2.721,0,0,0-.225,4.675L1.792,32.145a1.411,1.411,0,0,0,1.377,1.717H8.117a1.411,1.411,0,0,0,1.377-1.717L7.243,22.015a2.714,2.714,0,0,0-.159-4.631,4.16,4.16,0,0,1,1.824-3.238l17.246,5.3a7.052,7.052,0,0,0,4.126,0l24.6-7.557A2.076,2.076,0,0,0,54.878,7.866ZM31.109,22.142a9.871,9.871,0,0,1-5.784,0L12.537,18.213l-1.25,10.005c0,3.117,7.58,5.644,16.931,5.644s16.931-2.526,16.931-5.644L43.9,18.212Z" transform="translate(511.573 3971.739) rotate(3)" fill="#ffe24d"/>
    <path id="Icon_material-chat" data-name="Icon material-chat" d="M48.46,0H5.384A5.377,5.377,0,0,0,.027,5.384L0,53.844,10.769,43.075H48.46a5.4,5.4,0,0,0,5.384-5.384V5.384A5.4,5.4,0,0,0,48.46,0ZM10.769,18.846H43.075V24.23H10.769ZM32.307,32.307H10.769V26.922H32.307ZM43.075,16.153H10.769V10.769H43.075Z" transform="translate(1026.944 3885.702) rotate(16)" fill="#ffe24d"/>
    <path id="Icon_ionic-md-microphone" data-name="Icon ionic-md-microphone" d="M32.513,10.16V6.655A6.8,6.8,0,0,0,25.553,0H6.972A6.808,6.808,0,0,0,0,6.655V10.16H19.3v4.7H0v5.461H19.3v4.7H0v5.461H19.3v4.7H0v5.309a6.787,6.787,0,0,0,6.972,6.63H10.8V56.9H21.718V47.118h3.835a6.784,6.784,0,0,0,6.96-6.63V35.18H25.4v-4.7h7.112V25.02H25.4v-4.7h7.112V14.859H25.4v-4.7Z" transform="matrix(0.961, 0.276, -0.276, 0.961, 1169.845, 4064.571)" fill="#ffe24d"/>
    <path id="Icon_map-food" data-name="Icon map-food" d="M66.108,15.5,60.676,58.079H42.331L36.922,15.29h22.4L63.745,0l2.509.756L62.007,15.47l4.1.032ZM34.328,40.135s.686-5.521-8.827-5.521H10.351c-9.5,0-8.827,5.521-8.827,5.521h32.8ZM1.524,52.558s-.672,5.521,8.827,5.521H25.5c9.513,0,8.827-5.521,8.827-5.521ZM32.9,49.8c1.557,0,2.814-1.538,2.814-3.449S34.462,42.9,32.9,42.9H2.816C1.266,42.9,0,44.425,0,46.348S1.266,49.8,2.816,49.8Z" transform="translate(512.841 4353.22) rotate(3)" fill="#ffe24d"/>
    <path id="Icon_awesome-football-ball" data-name="Icon awesome-football-ball" d="M48.011,5.215a5.265,5.265,0,0,0-3.719-3.729A44.678,44.678,0,0,0,33.842,0L49.457,15.635a44.8,44.8,0,0,0-1.446-10.42ZM1.446,44.242a5.265,5.265,0,0,0,3.719,3.729,44.678,44.678,0,0,0,10.45,1.486L0,33.822A44.8,44.8,0,0,0,1.446,44.242ZM.419,27.461l21.558,21.6A31.684,31.684,0,0,0,49.048,22L27.481.4A31.664,31.664,0,0,0,.419,27.461ZM32.057,15.136a.8.8,0,0,1,1.127,0l1.127,1.127a.8.8,0,0,1,0,1.127l-2.822,2.822,2.822,2.822a.8.8,0,0,1,0,1.127l-1.127,1.127a.8.8,0,0,1-1.127,0l-2.822-2.822-2.253,2.263L29.8,27.55a.8.8,0,0,1,0,1.127L28.677,29.8a.8.8,0,0,1-1.127,0l-2.822-2.822-2.253,2.253L25.3,32.057a.8.8,0,0,1,0,1.127L24.17,34.311a.8.8,0,0,1-1.127,0l-2.822-2.822L17.4,34.311a.8.8,0,0,1-1.127,0l-1.127-1.127a.8.8,0,0,1,0-1.127l2.822-2.822-2.822-2.812a.8.8,0,0,1,0-1.127l1.127-1.127a.8.8,0,0,1,1.127,0l2.822,2.822,2.253-2.253-2.822-2.822a.8.8,0,0,1,0-1.127l1.127-1.127a.8.8,0,0,1,1.127,0l2.822,2.822,2.253-2.253L24.16,17.41a.8.8,0,0,1,0-1.127l1.127-1.127a.8.8,0,0,1,1.127,0l2.822,2.822Z" transform="matrix(0.985, -0.174, 0.174, 0.985, 559.004, 4240.019)" fill="#ffe24d"/>
    <path id="Icon_material-euro-symbol" data-name="Icon material-euro-symbol" d="M29.908,37.319a13.72,13.72,0,0,1-12.2-7.411h12.2V25.674H16.315a13.318,13.318,0,0,1,0-4.235H29.908V17.2h-12.2a13.736,13.736,0,0,1,21.152-4.086L42.612,9.37A19.028,19.028,0,0,0,11.953,17.2H4.5v4.235h6.479a17.708,17.708,0,0,0,0,4.235H4.5v4.235h7.453a19.028,19.028,0,0,0,30.659,7.834l-3.769-3.748A13.563,13.563,0,0,1,29.908,37.319Z" transform="translate(852.445 4510.718)" fill="#ffe24d"/>
    <path id="Icon_awesome-balance-scale-left" data-name="Icon awesome-balance-scale-left" d="M57.753,49H38.5V16.763a8.744,8.744,0,0,0,4.745-5.192L57.685,6.729a1.75,1.75,0,0,0,1.1-2.216L57.675,1.194a1.75,1.75,0,0,0-2.216-1.1l-12.9,4.324A8.724,8.724,0,0,0,26.251,8.75a8.647,8.647,0,0,0,.11,1.1L12.318,14.556a1.75,1.75,0,0,0-1.1,2.216l1.112,3.319a1.75,1.75,0,0,0,2.216,1.1l15.538-5.21a8.8,8.8,0,0,0,1.421.779v37.49A1.75,1.75,0,0,0,33.253,56h24.5a1.75,1.75,0,0,0,1.75-1.75v-3.5A1.751,1.751,0,0,0,57.753,49ZM70,33.252c0-1.77.147-.955-9.3-19.854a5.254,5.254,0,0,0-9.393,0C41.777,32.459,42,31.538,42,33.252h0C42,38.084,48.271,42,56,42s14-3.918,14-8.75ZM48.128,31.5,56,15.751,63.878,31.5ZM18.7,27.4a5.254,5.254,0,0,0-9.393,0C-.225,46.46,0,45.539,0,47.253H0C0,52.085,6.269,56,14,56s14-3.918,14-8.75h0C28,45.483,28.146,46.3,18.7,27.4ZM6.125,45.5,14,29.752,21.876,45.5Z" transform="matrix(0.951, -0.309, 0.309, 0.951, 632.946, 4076.758)" fill="#ffe24d"/>
    <path id="Icon_material-live-tv" data-name="Icon material-live-tv" d="M62.132,12.426H38.553L48.773,2.206,46.6,0,34.172,12.426,21.746,0,19.54,2.206,29.792,12.426H6.213A6.211,6.211,0,0,0,0,18.64V55.919a6.231,6.231,0,0,0,6.213,6.213H62.132a6.231,6.231,0,0,0,6.213-6.213V18.64A6.211,6.211,0,0,0,62.132,12.426Zm0,43.492H6.213V18.64H62.132ZM24.853,24.853V49.705L46.6,37.279Z" transform="translate(1171.582 4300.725) rotate(8)" fill="#ffe24d"/>
  </g>
</svg>
