<svg xmlns="http://www.w3.org/2000/svg" width="386.606" height="564.641" viewBox="0 0 386.606 564.641">
  <g id="Group_2647" data-name="Group 2647" transform="translate(-110.77 -1230.996)">
    <g id="Group_2639" data-name="Group 2639" transform="translate(-180.089 -163.265)">
      <g id="Icon_material-camera-alt" data-name="Icon material-camera-alt" transform="matrix(0.914, -0.407, 0.407, 0.914, 290.86, 1417.068)">
        <path id="Path_962" data-name="Path 962" d="M17.944,8.972A8.972,8.972,0,1,1,8.972,0,8.972,8.972,0,0,1,17.944,8.972Z" transform="translate(19.065 19.065)" fill="#ffe24d"/>
        <path id="Path_963" data-name="Path 963" d="M19.626,0,14.5,5.607H5.607A5.624,5.624,0,0,0,0,11.215V44.859a5.624,5.624,0,0,0,5.607,5.607H50.467a5.624,5.624,0,0,0,5.607-5.607V11.215a5.624,5.624,0,0,0-5.607-5.607H41.579L36.448,0Zm8.411,42.055A14.018,14.018,0,1,1,42.055,28.037,14.024,14.024,0,0,1,28.037,42.055Z" transform="translate(0 0)" fill="#ffe24d"/>
      </g>
      <path id="Icon_awesome-hand-holding-heart" data-name="Icon awesome-hand-holding-heart" d="M37.044,33.71a2.344,2.344,0,0,0,3.431,0L55.129,18.343a11.154,11.154,0,0,0-.754-15.986A10.228,10.228,0,0,0,40.26,3.394L38.753,4.968,37.259,3.407a10.217,10.217,0,0,0-14.115-1.05,11.165,11.165,0,0,0-.754,15.986ZM76.066,44.151a4.454,4.454,0,0,0-5.732,0L57.9,54.1a8.567,8.567,0,0,1-5.382,1.884H36.6a2.153,2.153,0,0,1,0-4.306H47.136a4.48,4.48,0,0,0,4.481-3.579,4.311,4.311,0,0,0-4.252-5.032H25.835A15.837,15.837,0,0,0,15.864,46.6L9.607,51.673H2.153A2.159,2.159,0,0,0,0,53.826V66.744A2.159,2.159,0,0,0,2.153,68.9h48.01a8.622,8.622,0,0,0,5.382-1.884L75.891,50.731A4.3,4.3,0,0,0,76.066,44.151Z" transform="translate(595.338 1423.6) rotate(-4)" fill="#ffe24d"/>
      <path id="Icon_awesome-glass-martini-alt" data-name="Icon awesome-glass-martini-alt" d="M103.43,11.866A6.951,6.951,0,0,0,98.516,0H6.963A6.951,6.951,0,0,0,2.049,11.866l44.1,44.1V95.591H34.61a8.241,8.241,0,0,0-8.241,8.241,1.648,1.648,0,0,0,1.648,1.648H77.461a1.648,1.648,0,0,0,1.648-1.648,8.241,8.241,0,0,0-8.241-8.241H59.332V55.962ZM91.423,9.889l-9.889,9.889H23.947L14.058,9.889H91.423Z" transform="translate(535.837 1671.11) rotate(3)" fill="#ffe24d"/>
      <path id="Icon_awesome-football-ball" data-name="Icon awesome-football-ball" d="M58.378,6.341a6.4,6.4,0,0,0-4.522-4.534A54.325,54.325,0,0,0,41.15,0L60.136,19.011a54.471,54.471,0,0,0-1.758-12.67ZM1.758,53.8A6.4,6.4,0,0,0,6.28,58.33a54.325,54.325,0,0,0,12.706,1.807L0,41.125A54.47,54.47,0,0,0,1.758,53.8ZM.509,33.39,26.722,59.651A38.526,38.526,0,0,0,59.639,26.746L33.414.485A38.5,38.5,0,0,0,.509,33.39ZM38.979,18.4a.973.973,0,0,1,1.37,0l1.37,1.37a.973.973,0,0,1,0,1.37l-3.431,3.431,3.431,3.431a.973.973,0,0,1,0,1.37l-1.37,1.37a.973.973,0,0,1-1.37,0l-3.431-3.431-2.74,2.752L36.239,33.5a.973.973,0,0,1,0,1.37l-1.37,1.37a.973.973,0,0,1-1.37,0l-3.431-3.431-2.74,2.74,3.431,3.431a.973.973,0,0,1,0,1.37l-1.37,1.37a.973.973,0,0,1-1.37,0l-3.431-3.431L21.157,41.72a.973.973,0,0,1-1.37,0l-1.37-1.37a.973.973,0,0,1,0-1.37l3.431-3.431-3.431-3.419a.973.973,0,0,1,0-1.37l1.37-1.37a.973.973,0,0,1,1.37,0l3.431,3.431,2.74-2.74L23.9,26.649a.973.973,0,0,1,0-1.37l1.37-1.37a.973.973,0,0,1,1.37,0l3.431,3.431,2.74-2.74-3.431-3.431a.973.973,0,0,1,0-1.37l1.37-1.37a.973.973,0,0,1,1.37,0l3.431,3.431Z" transform="translate(298.283 1771.804) rotate(3)" fill="#ffe24d"/>
      <path id="Icon_metro-chart-dots" data-name="Icon metro-chart-dots" d="M9.637,64.247a9.637,9.637,0,1,1,0-19.274c.284,0,.564.015.842.039L20.838,27.747a9.637,9.637,0,1,1,16.146,0L47.343,45.012q.42-.037.842-.039c.214,0,.426.009.637.023l17.1-29.927a9.637,9.637,0,1,1,7.96,4.205c-.215,0-.426-.009-.637-.023l-17.1,29.928a9.638,9.638,0,1,1-16.033.171L29.753,32.085c-.278.024-.558.039-.842.039s-.564-.015-.842-.039L17.71,49.35a9.635,9.635,0,0,1-8.073,14.9Z" transform="matrix(0.934, -0.358, 0.358, 0.934, 430.089, 1573.459)" fill="#ffe24d"/>
      <path id="Icon_awesome-balance-scale-left" data-name="Icon awesome-balance-scale-left" d="M71.247,60.452H47.5V20.679a10.786,10.786,0,0,0,5.854-6.405L71.163,8.3a2.159,2.159,0,0,0,1.36-2.734L71.151,1.474A2.159,2.159,0,0,0,68.417.113L52.505,5.447a10.762,10.762,0,0,0-20.12,5.348,10.667,10.667,0,0,0,.136,1.353L15.2,17.957a2.159,2.159,0,0,0-1.36,2.734l1.372,4.094a2.159,2.159,0,0,0,2.734,1.36L37.11,19.718a10.86,10.86,0,0,0,1.753.961v46.25a2.158,2.158,0,0,0,2.159,2.159H71.248a2.158,2.158,0,0,0,2.159-2.159V62.611A2.16,2.16,0,0,0,71.247,60.452Zm15.11-19.431c0-2.183.181-1.178-11.476-24.492a6.482,6.482,0,0,0-11.587,0C51.538,40.043,51.819,38.906,51.819,41.021h0c0,5.962,7.733,10.795,17.272,10.795S86.36,46.982,86.36,41.021ZM59.372,38.862l9.715-19.431L78.8,38.862ZM23.065,33.8a6.482,6.482,0,0,0-11.587,0C-.278,57.315,0,56.178,0,58.293H0c0,5.962,7.733,10.795,17.272,10.795s17.272-4.833,17.272-10.795h0C34.541,56.11,34.722,57.115,23.065,33.8ZM7.556,56.134,17.272,36.7l9.715,19.431Z" transform="translate(480.588 1889.813)" fill="#ffe24d"/>
    </g>
  </g>
</svg>
