<svg xmlns="http://www.w3.org/2000/svg" width="866.478" height="823.836" viewBox="0 0 866.478 823.836">
  <g id="Group_6" data-name="Group 6" transform="translate(-833.598 0.138)">
    <path id="Icon_material-attach-money" data-name="Icon material-attach-money" d="M14.085,20.306c-5.835-1.517-7.711-3.084-7.711-5.526,0-2.8,2.6-4.755,6.94-4.755,4.575,0,6.272,2.185,6.426,5.4h5.68A10.246,10.246,0,0,0,17.17,5.629V0H9.459V5.552c-4.986,1.08-9,4.318-9,9.279,0,5.937,4.909,8.893,12.081,10.615,6.426,1.542,7.711,3.8,7.711,6.195,0,1.774-1.259,4.6-6.94,4.6-5.295,0-7.377-2.365-7.66-5.4H0c.308,5.629,4.524,8.791,9.459,9.844v5.578H17.17V40.74c5.012-.951,9-3.855,9-9.125C26.166,24.315,19.92,21.822,14.085,20.306Z" transform="translate(897.374 355.054) rotate(34)" fill="#ffe24d"/>
    <path id="Icon_metro-chart-dots" data-name="Icon metro-chart-dots" d="M24.814,61.037a6.506,6.506,0,1,1,0-13.011c.192,0,.381.01.568.026L32.376,36.4a6.506,6.506,0,1,1,10.9,0l6.993,11.655q.284-.025.568-.026c.145,0,.288.006.43.016l11.545-20.2a6.505,6.505,0,1,1,5.374,2.839c-.145,0-.288-.006-.43-.016L56.21,50.864a6.506,6.506,0,1,1-10.823.116L38.394,39.325c-.187.016-.377.026-.568.026s-.381-.01-.568-.026L30.264,50.98a6.5,6.5,0,0,1-5.45,10.057Z" transform="translate(810.351 49.491) rotate(-20)" fill="#ffe24d"/>
    <path id="Icon_material-people" data-name="Icon material-people" d="M60.693,31.177A11.839,11.839,0,1,0,48.855,19.339,11.789,11.789,0,0,0,60.693,31.177Zm-31.57,0A11.839,11.839,0,1,0,17.285,19.339,11.789,11.789,0,0,0,29.124,31.177Zm0,7.892C19.929,39.07,1.5,43.687,1.5,52.882v9.866H56.747V52.882C56.747,43.687,38.318,39.07,29.124,39.07Zm31.57,0c-1.144,0-2.447.079-3.828.2,4.578,3.315,7.774,7.774,7.774,13.614v9.866H88.317V52.882C88.317,43.687,69.888,39.07,60.693,39.07Z" transform="translate(1574.244 744.239)" fill="#ffe24d"/>
    <path id="Icon_material-euro-symbol" data-name="Icon material-euro-symbol" d="M37.855,47.583a18.011,18.011,0,0,1-16.01-9.729h16.01V32.3H20.01a17.484,17.484,0,0,1,0-5.559H37.855V21.177H21.845a18.032,18.032,0,0,1,27.768-5.365l4.92-4.92A24.979,24.979,0,0,0,14.284,21.177H4.5v5.559h8.505a23.246,23.246,0,0,0,0,5.559H4.5v5.559h9.784A24.979,24.979,0,0,0,54.532,48.139l-4.948-4.92A17.8,17.8,0,0,1,37.855,47.583Z" transform="translate(1278.724 423.36)" fill="#ffe24d"/>
    <path id="Icon_material-euro-symbol-2" data-name="Icon material-euro-symbol" d="M23.03,28.434a10.006,10.006,0,0,1-8.894-5.4H23.03V19.941H13.116a9.713,9.713,0,0,1,0-3.088H23.03V13.765H14.135a10.017,10.017,0,0,1,15.426-2.98l2.733-2.733A13.877,13.877,0,0,0,9.935,13.765H4.5v3.088H9.225a12.914,12.914,0,0,0,0,3.088H4.5V23.03H9.935a13.877,13.877,0,0,0,22.359,5.713L29.546,26.01a9.891,9.891,0,0,1-6.516,2.424Z" transform="translate(1649.418 436.397)" fill="#ffe24d"/>
    <path id="Icon_awesome-globe-americas" data-name="Icon awesome-globe-americas" d="M18.757.563A18.757,18.757,0,1,0,37.515,19.32,18.757,18.757,0,0,0,18.757.563ZM24.981,27.61c-.295.293-.6.6-.855.853a1.807,1.807,0,0,0-.467.81c-.114.428-.206.861-.361,1.276l-1.315,3.543a15.116,15.116,0,0,1-3.226.355V32.376A5.663,5.663,0,0,0,17.046,28.5a2.42,2.42,0,0,1-.709-1.712V24.367a2.412,2.412,0,0,0-1.245-2.116c-1.087-.6-2.633-1.442-3.692-1.975a10.9,10.9,0,0,1-2.394-1.645l-.061-.054A8.682,8.682,0,0,1,7.58,17.009c-.709-1.041-1.865-2.755-2.616-3.868a15.209,15.209,0,0,1,7.806-7.706l1.816.908A1.21,1.21,0,0,0,16.337,5.26V4.406a15.116,15.116,0,0,1,1.845-.183l2.14,2.14a1.21,1.21,0,0,1,0,1.712l-.355.354-.782.782a.605.605,0,0,0,0,.855l.355.355a.605.605,0,0,1,0,.855l-.605.605a.606.606,0,0,1-.428.177h-.68a.6.6,0,0,0-.422.172l-.75.73a.606.606,0,0,0-.12.7l1.179,2.359a.605.605,0,0,1-.541.876h-.427a.6.6,0,0,1-.4-.148l-.7-.61a1.211,1.211,0,0,0-1.176-.234l-2.358.786A.9.9,0,0,0,12,18.359l.838.419a5.122,5.122,0,0,0,2.292.542c.8,0,1.709,2.064,2.42,2.42H22.6a2.422,2.422,0,0,1,1.712.709l1.035,1.035a2.307,2.307,0,0,1,.675,1.631,3.52,3.52,0,0,1-1.038,2.494ZM31.54,20.7a1.815,1.815,0,0,1-1.07-.754l-1.36-2.04a1.813,1.813,0,0,1,0-2.013l1.482-2.222a1.813,1.813,0,0,1,.7-.616l.982-.491a14.653,14.653,0,0,1,1.475,8.688Z" transform="translate(1662.561 -0.701)" fill="#ffe24d"/>
    <path id="Icon_awesome-balance-scale-left" data-name="Icon awesome-balance-scale-left" d="M75.816,64.329H50.544V22.005a11.478,11.478,0,0,0,6.229-6.816L75.727,8.834a2.3,2.3,0,0,0,1.447-2.909l-1.46-4.357A2.3,2.3,0,0,0,72.8.121L55.873,5.8a11.452,11.452,0,0,0-21.411,5.691,11.351,11.351,0,0,0,.145,1.44L16.171,19.109a2.3,2.3,0,0,0-1.447,2.909l1.46,4.357a2.3,2.3,0,0,0,2.909,1.447l20.4-6.839a11.557,11.557,0,0,0,1.865,1.022V71.221a2.3,2.3,0,0,0,2.3,2.3H75.817a2.3,2.3,0,0,0,2.3-2.3V66.626A2.3,2.3,0,0,0,75.816,64.329ZM91.9,43.652c0-2.323.192-1.254-12.212-26.063a6.9,6.9,0,0,0-12.33,0C54.843,42.611,55.142,41.4,55.142,43.652h0c0,6.344,8.229,11.487,18.38,11.487S91.9,50,91.9,43.652Zm-28.715-2.3L73.519,20.677,83.857,41.354ZM24.544,35.968a6.9,6.9,0,0,0-12.33,0C-.3,60.99,0,59.781,0,62.031H0c0,6.344,8.229,11.487,18.38,11.487s18.38-5.143,18.38-11.487h0C36.756,59.708,36.949,60.778,24.544,35.968ZM8.041,59.734,18.38,39.057,28.718,59.734Z" transform="translate(1240.415 228.782)" fill="#ffe24d"/>
    <g id="Icon_ionic-md-megaphone" data-name="Icon ionic-md-megaphone" transform="matrix(0.914, -0.407, 0.407, 0.914, 883.684, 791.566)">
      <path id="Path_976" data-name="Path 976" d="M29.224,10.083l2.754,2.742a9.7,9.7,0,0,0,0,13.735l-2.754,2.754a13.6,13.6,0,0,1,0-19.231Z" transform="translate(-17.552 -2.524)" fill="#ffe24d"/>
      <path id="Path_977" data-name="Path 977" d="M34.687,6.961l2.706,2.706a17.27,17.27,0,0,0,0,24.393l-2.706,2.706a21.069,21.069,0,0,1,0-29.806Z" transform="translate(-28.512 -4.696)" fill="#ffe24d"/>
      <path id="Path_978" data-name="Path 978" d="M6.065,18.036V5.625H9.88l11.445,9.538H36.586L40.4,17.07V30.423l-3.815,1.908L27.048,47.592H21.326L24.9,32.331H21.326L9.88,39.961H6.065V27.55A4.517,4.517,0,0,1,2.25,22.793,4.517,4.517,0,0,1,6.065,18.036Z" transform="translate(13.011 -5.625)" fill="#ffe24d"/>
    </g>
    <path id="Icon_material-chat" data-name="Icon material-chat" d="M66.616,3H10.068a7.059,7.059,0,0,0-7.033,7.068L3,73.685,17.137,59.548H66.616a7.089,7.089,0,0,0,7.068-7.068V10.068A7.089,7.089,0,0,0,66.616,3ZM17.137,27.74H59.548v7.068H17.137ZM45.411,45.411H17.137V38.342H45.411ZM59.548,24.205H17.137V17.137H59.548Z" transform="translate(1310.949 24.576) rotate(8)" fill="#ffe24d"/>
    <path id="Icon_material-live-tv" data-name="Icon material-live-tv" d="M83.064,19.313H52.11L65.528,5.9,62.673,3,46.36,19.313,30.047,3l-2.9,2.9L40.61,19.313H9.656A8.154,8.154,0,0,0,1.5,27.469V76.408a8.18,8.18,0,0,0,8.156,8.156H83.064a8.18,8.18,0,0,0,8.156-8.156V27.469A8.154,8.154,0,0,0,83.064,19.313Zm0,57.095H9.656V27.469H83.064ZM34.126,35.626V68.251L62.673,51.938Z" transform="translate(1491.102 242.711) rotate(8)" fill="#ffe24d"/>
    <path id="Icon_awesome-star" data-name="Icon awesome-star" d="M48.816,3.533,35.861,29.8,6.877,34.025A6.352,6.352,0,0,0,3.366,44.857L24.335,65.29l-4.96,28.865a6.345,6.345,0,0,0,9.205,6.686L54.509,87.212l25.929,13.629a6.349,6.349,0,0,0,9.205-6.686L84.684,65.29l20.969-20.434a6.352,6.352,0,0,0-3.511-10.832L73.158,29.8,60.2,3.533a6.354,6.354,0,0,0-11.387,0Z" transform="translate(1228.717 570.473)" fill="none" stroke="#ffe24d" stroke-width="4"/>
    <path id="Icon_ionic-md-microphone" data-name="Icon ionic-md-microphone" d="M49.3,14.844V10.5A8.435,8.435,0,0,0,40.674,2.25H17.643A8.439,8.439,0,0,0,9,10.5v4.345H32.928v5.825H9v6.769H32.928v5.825H9v6.769H32.928v5.825H9v6.58a8.413,8.413,0,0,0,8.643,8.218h4.738V72.776H35.919V60.654h4.754A8.409,8.409,0,0,0,49.3,52.437v-6.58H40.485V40.032H49.3V33.262H40.485V27.438H49.3V20.669H40.485V14.844Z" transform="translate(986.606 537.446) rotate(24)" fill="#ffe24d"/>
    <g id="Icon_material-airplanemode-active" data-name="Icon material-airplanemode-active" transform="translate(1359.082 604.137) rotate(-42)">
      <path id="Path_964" data-name="Path 964" d="M15.27,13.5" transform="translate(27.105 23.195)" fill="#ffe24d"/>
      <path id="Path_965" data-name="Path 965" d="M94.457,70.389V60.762L55.949,36.695V10.22a7.22,7.22,0,1,0-14.441,0V36.695L3,60.762v9.627L41.508,58.355V84.83l-9.627,7.22v7.22l16.847-4.814L65.576,99.27V92.05l-9.627-7.22V58.355Z" fill="#ffe24d"/>
    </g>
  </g>
</svg>
