<svg xmlns="http://www.w3.org/2000/svg" width="37" height="38" viewBox="0 0 37 38">
  <g id="Layer_2" data-name="Layer 2" transform="translate(0)">
    <g id="invisible_box" data-name="invisible box" transform="translate(0 0)">
      <rect id="Rectangle_20" data-name="Rectangle 20" width="37" height="38" fill="none"/>
    </g>
    <g id="icons_Q2" data-name="icons Q2" transform="translate(3.097 3.097)">
      <path id="Path_982" data-name="Path 982" d="M27.15,4a1.573,1.573,0,0,0-1.573,1.808,1.651,1.651,0,0,0,1.651,1.337h7.155l-9.829,9.829a1.573,1.573,0,0,0-.157,2.2,1.415,1.415,0,0,0,1.179.55,1.573,1.573,0,0,0,1.1-.472l9.907-9.907V16.5a1.651,1.651,0,0,0,1.337,1.651,1.573,1.573,0,0,0,1.808-1.573V5.573A1.573,1.573,0,0,0,38.158,4Z" transform="translate(-9.278 -4)" fill="#f5f5ff" stroke="#f5f5ff" stroke-width="1"/>
      <path id="Path_983" data-name="Path 983" d="M32.7,24.444A1.64,1.64,0,0,0,31.407,26.1v6.212H7.045V7.145h6.09A1.5,1.5,0,0,0,14.3,6.6,1.582,1.582,0,0,0,13.06,4H5.523A1.548,1.548,0,0,0,4,5.573V33.879a1.548,1.548,0,0,0,1.523,1.573H32.93a1.548,1.548,0,0,0,1.523-1.573V26.016a1.6,1.6,0,0,0-.523-1.2A1.489,1.489,0,0,0,32.7,24.444Z" transform="translate(-4 -4)" fill="#f5f5ff" stroke="#f5f5ff" stroke-width="1"/>
    </g>
  </g>
</svg>
