<svg xmlns="http://www.w3.org/2000/svg" width="32.398" height="32.398" viewBox="0 0 32.398 32.398">
  <g id="Layer_2" data-name="Layer 2" transform="translate(-15.5 -5.884)">
    <g id="icons_Q2" data-name="icons Q2" transform="translate(16 6.384)">
      <path id="Path_984" data-name="Path 984" d="M29.269,19.849h-6.28V13.57a1.57,1.57,0,1,0-3.14,0v6.28H13.57a1.57,1.57,0,1,0,0,3.14h6.28v6.28a1.57,1.57,0,1,0,3.14,0v-6.28h6.28a1.57,1.57,0,1,0,0-3.14Z" transform="translate(-5.72 -5.72)" fill="#f5f5ff" stroke="#f5f5ff" stroke-width="1"/>
      <path id="Path_985" data-name="Path 985" d="M32.258,7.14V32.258H7.14V7.14H32.258M33.828,4H5.57A1.57,1.57,0,0,0,4,5.57V33.828A1.57,1.57,0,0,0,5.57,35.4H33.828a1.57,1.57,0,0,0,1.57-1.57V5.57A1.57,1.57,0,0,0,33.828,4Z" transform="translate(-4 -4)" fill="#f5f5ff" stroke="#f5f5ff" stroke-width="1"/>
    </g>
  </g>
</svg>
