<svg xmlns="http://www.w3.org/2000/svg" width="38" height="38" viewBox="0 0 38 38">
  <g id="Layer_2" data-name="Layer 2" transform="translate(0 -0.045)">
    <g id="invisible_box" data-name="invisible box" transform="translate(0)">
      <rect id="Rectangle_22" data-name="Rectangle 22" width="38" height="38" transform="translate(0 0.045)" fill="none"/>
    </g>
    <g id="icons_Q2" data-name="icons Q2" transform="translate(2.807 3.081)">
      <path id="Path_986" data-name="Path 986" d="M25.033,22.909a11.623,11.623,0,0,0,2.356-8.56A11.937,11.937,0,0,0,16.552,3.984,11.8,11.8,0,1,0,14.2,27.464a12.015,12.015,0,0,0,8.638-2.277l9.816,9.738a1.492,1.492,0,0,0,2.2,0h0a1.492,1.492,0,0,0,0-2.2ZM17.1,24.323A8.638,8.638,0,0,1,7.207,14.271,8.481,8.481,0,0,1,14.2,7.282a8.56,8.56,0,0,1,9.973,9.973A8.717,8.717,0,0,1,17.1,24.323Z" transform="translate(-3.574 -3.924)" fill="#f5f5ff" stroke="#f5f5ff" stroke-width="1"/>
    </g>
  </g>
</svg>
